<mxfile host="app.diagrams.net" agent="Mozilla/5.0 (Windows NT 10.0; Win64; x64) AppleWebKit/537.36 (KHTML, like Gecko) Chrome/136.0.0.0 Safari/537.36" version="25.0.0">
  <diagram name="Page-1" id="fA8EA8J6eGu3W54KbRm6">
    <mxGraphModel dx="875" dy="479" grid="1" gridSize="10" guides="1" tooltips="1" connect="1" arrows="1" fold="1" page="1" pageScale="1" pageWidth="850" pageHeight="1100" math="0" shadow="0">
      <root>
        <mxCell id="0" />
        <mxCell id="1" parent="0" />
        <mxCell id="qlCPXO2qQp_LJtEds1f7-1" value="user" style="shape=umlActor;verticalLabelPosition=bottom;verticalAlign=top;html=1;outlineConnect=0;" vertex="1" parent="1">
          <mxGeometry x="630" y="240" width="30" height="60" as="geometry" />
        </mxCell>
        <mxCell id="qlCPXO2qQp_LJtEds1f7-2" value="Admin" style="shape=umlActor;verticalLabelPosition=bottom;verticalAlign=top;html=1;outlineConnect=0;" vertex="1" parent="1">
          <mxGeometry x="234.69" y="240" width="30" height="60" as="geometry" />
        </mxCell>
        <mxCell id="qlCPXO2qQp_LJtEds1f7-5" value="" style="rounded=0;whiteSpace=wrap;html=1;rotation=-90;" vertex="1" parent="1">
          <mxGeometry x="263.56" y="183.56" width="376.65" height="191.25" as="geometry" />
        </mxCell>
        <mxCell id="qlCPXO2qQp_LJtEds1f7-6" value="Login/Logout" style="ellipse;whiteSpace=wrap;html=1;" vertex="1" parent="1">
          <mxGeometry x="391.88" y="110" width="120" height="40" as="geometry" />
        </mxCell>
        <mxCell id="qlCPXO2qQp_LJtEds1f7-7" value="Upload Image" style="ellipse;whiteSpace=wrap;html=1;" vertex="1" parent="1">
          <mxGeometry x="391.88" y="170" width="120" height="40" as="geometry" />
        </mxCell>
        <mxCell id="qlCPXO2qQp_LJtEds1f7-8" value="Download Images" style="ellipse;whiteSpace=wrap;html=1;" vertex="1" parent="1">
          <mxGeometry x="391.88" y="220" width="120" height="40" as="geometry" />
        </mxCell>
        <mxCell id="qlCPXO2qQp_LJtEds1f7-9" value="Check Image stats" style="ellipse;whiteSpace=wrap;html=1;" vertex="1" parent="1">
          <mxGeometry x="391.88" y="270" width="120" height="40" as="geometry" />
        </mxCell>
        <mxCell id="qlCPXO2qQp_LJtEds1f7-10" value="Report Issues" style="ellipse;whiteSpace=wrap;html=1;" vertex="1" parent="1">
          <mxGeometry x="391.88" y="330" width="120" height="40" as="geometry" />
        </mxCell>
        <mxCell id="qlCPXO2qQp_LJtEds1f7-11" value="&lt;font style=&quot;font-size: 11px;&quot;&gt;Check user inputs&amp;nbsp;&lt;/font&gt;&lt;div&gt;&lt;font style=&quot;font-size: 11px;&quot;&gt;and outputs&lt;/font&gt;&lt;/div&gt;" style="ellipse;whiteSpace=wrap;html=1;" vertex="1" parent="1">
          <mxGeometry x="391.88" y="390" width="120" height="40" as="geometry" />
        </mxCell>
        <mxCell id="qlCPXO2qQp_LJtEds1f7-12" value="" style="endArrow=none;html=1;rounded=0;exitX=1;exitY=0.3333333333333333;exitDx=0;exitDy=0;exitPerimeter=0;entryX=0;entryY=0.5;entryDx=0;entryDy=0;" edge="1" parent="1" source="qlCPXO2qQp_LJtEds1f7-2" target="qlCPXO2qQp_LJtEds1f7-6">
          <mxGeometry width="50" height="50" relative="1" as="geometry">
            <mxPoint x="400" y="320" as="sourcePoint" />
            <mxPoint x="450" y="270" as="targetPoint" />
          </mxGeometry>
        </mxCell>
        <mxCell id="qlCPXO2qQp_LJtEds1f7-13" value="" style="endArrow=none;html=1;rounded=0;exitX=1;exitY=0.3333333333333333;exitDx=0;exitDy=0;exitPerimeter=0;entryX=0;entryY=0.5;entryDx=0;entryDy=0;" edge="1" parent="1" source="qlCPXO2qQp_LJtEds1f7-2" target="qlCPXO2qQp_LJtEds1f7-11">
          <mxGeometry width="50" height="50" relative="1" as="geometry">
            <mxPoint x="275" y="270" as="sourcePoint" />
            <mxPoint x="402" y="140" as="targetPoint" />
          </mxGeometry>
        </mxCell>
        <mxCell id="qlCPXO2qQp_LJtEds1f7-14" value="" style="endArrow=none;html=1;rounded=0;entryX=1;entryY=0.5;entryDx=0;entryDy=0;exitX=0;exitY=0.3333333333333333;exitDx=0;exitDy=0;exitPerimeter=0;" edge="1" parent="1" source="qlCPXO2qQp_LJtEds1f7-1" target="qlCPXO2qQp_LJtEds1f7-7">
          <mxGeometry width="50" height="50" relative="1" as="geometry">
            <mxPoint x="630" y="260" as="sourcePoint" />
            <mxPoint x="757" y="410" as="targetPoint" />
          </mxGeometry>
        </mxCell>
        <mxCell id="qlCPXO2qQp_LJtEds1f7-15" value="" style="endArrow=none;html=1;rounded=0;entryX=1;entryY=0.5;entryDx=0;entryDy=0;exitX=0;exitY=0.3333333333333333;exitDx=0;exitDy=0;exitPerimeter=0;" edge="1" parent="1" source="qlCPXO2qQp_LJtEds1f7-1" target="qlCPXO2qQp_LJtEds1f7-8">
          <mxGeometry width="50" height="50" relative="1" as="geometry">
            <mxPoint x="640" y="270" as="sourcePoint" />
            <mxPoint x="522" y="200" as="targetPoint" />
          </mxGeometry>
        </mxCell>
        <mxCell id="qlCPXO2qQp_LJtEds1f7-16" value="" style="endArrow=none;html=1;rounded=0;entryX=1;entryY=0.5;entryDx=0;entryDy=0;exitX=0;exitY=0.3333333333333333;exitDx=0;exitDy=0;exitPerimeter=0;" edge="1" parent="1" source="qlCPXO2qQp_LJtEds1f7-1" target="qlCPXO2qQp_LJtEds1f7-9">
          <mxGeometry width="50" height="50" relative="1" as="geometry">
            <mxPoint x="650" y="280" as="sourcePoint" />
            <mxPoint x="532" y="210" as="targetPoint" />
          </mxGeometry>
        </mxCell>
        <mxCell id="qlCPXO2qQp_LJtEds1f7-17" value="" style="endArrow=none;html=1;rounded=0;entryX=1;entryY=0.5;entryDx=0;entryDy=0;exitX=0;exitY=0.3333333333333333;exitDx=0;exitDy=0;exitPerimeter=0;" edge="1" parent="1" source="qlCPXO2qQp_LJtEds1f7-1" target="qlCPXO2qQp_LJtEds1f7-10">
          <mxGeometry width="50" height="50" relative="1" as="geometry">
            <mxPoint x="660" y="290" as="sourcePoint" />
            <mxPoint x="542" y="220" as="targetPoint" />
          </mxGeometry>
        </mxCell>
      </root>
    </mxGraphModel>
  </diagram>
</mxfile>
